<svg xmlns="http://www.w3.org/2000/svg" version="1.1" x="0" y="0" viewBox="0 0 512 512" style="enable-background:new 0 0 512 512" xml:space="preserve" class=""><g transform="matrix(1,0,0,1,0,0)">
<g>
	<g>
		<path d="M436,60h-89.185l-9.75-29.238C330.927,12.363,313.773,0,294.379,0h-76.758c-19.395,0-36.548,12.363-42.7,30.762
			L165.182,60H76c-24.814,0-45,20.186-45,45v30c0,16.708,15.041,15,31.183,15c138.554,0,264.175,0,403.817,0c8.291,0,15-6.709,15-15
			v-30C481,80.186,460.814,60,436,60z M196.813,60l6.57-19.746C205.434,34.116,211.161,30,217.621,30h76.758
			c6.46,0,12.188,4.116,14.224,10.254L315.18,60H196.813z" data-original="#000000" class=""></path>
	</g>
</g>
<g>
	<g>
		<path d="M64.666,182l23.917,289.072C90.707,494.407,109.97,512,133.393,512h245.215c23.423,0,42.686-17.593,44.824-41.06
			L447.336,182H64.666z M181,437c0,19.773-30,19.854-30,0V227c0-19.773,30-19.854,30,0V437z M271,437c0,19.773-30,19.854-30,0V227
			c0-19.773,30-19.854,30,0V437z M361,437c0,19.773-30,19.854-30,0V227c0-8.291,6.709-15,15-15c8.291,0,15,6.709,15,15V437z" data-original="#000000" class=""></path>
	</g>
</g>
<g>
</g>
<g>
</g>
<g>
</g>
<g>
</g>
<g>
</g>
<g>
</g>
<g>
</g>
<g>
</g>
<g>
</g>
<g>
</g>
<g>
</g>
<g>
</g>
<g>
</g>
<g>
</g>
<g>
</g>
</g></svg>